# xmcd
#
# Track frame offsets: 
#        150
#        24631
#        47380
#        67053
#        87107
#        106663
#        129212
#        148156
#        171040
#        186626
#        204250
#        225782
#        249134
#        269974
#        290120
#
# Disc length: 4139 seconds
#
# Revision: 0
# Processed by: cddbd v1.5.2PL0 Copyright (c) Steve Scherf et al.
# Submitted via: ExactAudioCopy v0.95b4
#
DISCID=d210290f
DTITLE=楊洋 - 楊洋之歌3
DYEAR=2007
DGENRE=Pop
TTITLE0=天下無雙
TTITLE1=你一定要幸福
TTITLE2=千里之外
TTITLE3=愛情復興
TTITLE4=愛你勝過愛自己
TTITLE5=再見了最愛的人
TTITLE6=認真的雪
TTITLE7=我要的選擇
TTITLE8=曖昧
TTITLE9=秋天不回來
TTITLE10=愛如空氣
TTITLE11=醉清風
TTITLE12=愛一個人需要理由嗎
TTITLE13=別再說你愛著我
TTITLE14=祝你幸福
EXTD=
EXTT0=
EXTT1=
EXTT2=
EXTT3=
EXTT4=
EXTT5=
EXTT6=
EXTT7=
EXTT8=
EXTT9=
EXTT10=
EXTT11=
EXTT12=
EXTT13=
EXTT14=
PLAYORDER=
